<svg width="16" height="16" viewBox="0 0 16 16" fill="none" xmlns="http://www.w3.org/2000/svg" aria-hidden="true"><g clip-path="url(#clip0)"><path fill="#40B261" d="M2 2h12v12H2z"/><g clip-path="url(#clip1)"><path fill="#fff" d="M3 3h11v10H3z"/><path d="M18.7-9.449c1.54-.784 1.207.422 1.393 1.117l6.752 25.197-28.977 7.765c-1.224.328-1.883.318-2.005-.953l7.755-2.078 6.53-1.75 7.142-1.913 8.162-2.187-.466-1.738-.698-2.607-.559-2.085-.14-.521-.465-1.738-.466-1.738-.372-1.39-.466-1.738-.465-1.737-.932-3.476c-.53-1.162-1.06-2.323-1.432-3.714-.029-.923-.058-1.847-.29-2.716z" fill="#FEFEFE"/><path d="M23.59 8.798l.14.521c-.724.566-1.493.959-2.42 1.58-3.08 1.57-6.315 3.368-9.348 5.112-2.828 1.689-5.61 3.552-8.437 5.24-2.886-.157-5.568-.37-8.453-.528L-6 16.726c.501.238 1.002.476 1.3.77 2.517 2.864 6.2 3.553 10.003 1.417 1.9-1.069 3.458-2.603 5.312-3.845 4.257-2.072 8.717-4.198 12.974-6.27z" fill="#B828D1"/><path d="M10.616 15.068c-1.854 1.242-3.412 2.776-5.312 3.844C1.706 20.994-2.23 20.186-4.7 17.495c-.298-.293-.799-.53-1.3-.769l-1.025-3.823c.315-.457.426-.86.741-1.316 1.103-1.6 1.955-3.317 3.057-4.917l.373 1.39c-2.66 3.134-2.824 5.786-.558 8.531 1.97 2.453 5.811 2.913 8.593 1.05 1.697-1.013 3.05-2.493 4.496-3.626l.612-.164.326 1.217z" fill="#CB2EBE"/><path d="M-10.451-.706c.11-.402-.029-.924.38-1.033.769-.392 1.632-.437 2.448-.656 1.819.258 3.48.744 5.456.773 2.227.148 4.36-.051 4.808 2.437L2.03.979C-.022-.148-2.074-1.275-4.79.012c-1.976-.029-3.795-.287-5.66-.718z" fill="#EE349F"/><path d="M-5.787-2.887l4.49-1.203c.5.238.956.303 1.457.54 1.504.715 2.803 1.485 4.307 2.2l.698 2.606c-.454-.065-.705-.184-1.16-.248C3.056-1.718.801-2.79-2.604-2.436c-.863.045-2.023-.203-3.183-.451z" fill="#FD6273"/><path d="M-5.787-2.887c1.114.074 2.116.55 3.183.45 3.405-.353 5.456.774 6.61 3.445l-.473.685-1.253-.595C1.832-1.39-.302-1.191-2.53-1.34c-1.772-.084-3.637-.515-5.456-.773a12.126 12.126 0 012.198-.775z" fill="#FB4B88"/><path d="M2.484 1.043l1.253.595.326 1.217C5.338 6.797 6.545 7.219 11.08 6.19c4.128-.92 7.271-3.066 10.321-5.56l.466 1.738c-3.33 1.45-6.612 3.076-9.738 4.472-2.513 1.232-4.98 2.638-4.893 5.408-.566.338-1.131.676-1.493.96C4.72 9.383 4.218 9.145.906 9.846c.175-.978.555-2.011.73-2.99 1.01-1.946.748-3.738.032-5.595l.816-.219z" fill="#FD3090"/><path d="M21.401.63c-3.05 2.494-6.193 4.64-10.32 5.56-4.536 1.029-5.743.607-7.018-3.335l-.326-1.217.473-.685c.454.065.705.184 1.16.248 1.042 3.073 3 3.852 6.47 2.923 4.896-1.314 7.38-3.468 7.61-6.696l1.02-.273.931 3.475z" fill="#FD4272"/><path d="M3.618 21.6l-.093-.348c2.781-1.863 5.61-3.552 8.437-5.241 3.033-1.744 6.269-3.542 9.348-5.112.927-.621 1.696-1.014 2.42-1.58l.558 2.085c-2.105 1.123-4.256 2.072-6.157 3.14-2.624 1.634-5.202 3.443-7.78 5.25L3.619 21.6z" fill="#9929DB"/><path d="M10.149 19.85c2.781-1.863 5.155-3.616 7.983-5.305 1.9-1.068 4.052-2.017 6.204-2.966l.698 2.606c-2.513 1.232-5.026 2.465-7.697 3.925-2.29.428-4.74 1.084-7.188 1.74z" fill="#6333E4"/><path d="M10.29 13.851l-.612.164c-.14-.521-.437-.814-.78-1.28.203-.055.36-.284.518-.512 4.414-2.3 8.828-4.6 13.493-6.782l.466 1.738c-4.46 2.127-8.875 4.427-13.085 6.672z" fill="#E019C1"/><path d="M22.659 5.322c-4.415 2.3-8.828 4.6-13.493 6.782-.011-1.673.934-3.044 2.677-3.884 3.534-1.505 7.114-2.837 10.49-4.114l.326 1.216z" fill="#F519B1"/><path d="M22.332 4.106c-3.58 1.332-6.909 2.782-10.489 4.114-1.743.84-2.688 2.21-2.427 4.003-.157.228-.315.457-.519.511-.361.284-.519.512-.927.621-.297-.292-.64-.759-.938-1.052.118-2.825 2.584-4.231 5.098-5.463 3.282-1.625 6.612-3.076 9.737-4.472l.465 1.738z" fill="#F924A1"/><path d="M10.29 13.851c4.21-2.245 8.624-4.545 12.834-6.791l.466 1.738c-4.257 2.072-8.717 4.198-12.974 6.27l-.326-1.217z" fill="#C71DCD"/><path d="M8.017 13.53c.361-.284.519-.512.88-.795.344.466.641.759.781 1.28-1.4 1.307-2.8 2.613-4.496 3.626-2.578 1.809-6.623 1.403-8.389-1.104-2.266-2.746-2.102-5.397.558-8.531.361-.283.519-.512.927-.621l.326 1.216c-1.418 2.056-2.882 3.939-.959 6.217 2.36 3.093 6.971 3.161 9.538-.32.157-.229.472-.686.834-.969z" fill="#DC31B0"/><path d="M-1.769 7.211c-.361.283-.519.512-.927.621l-.372-1.39c-.262-1.792-.523-3.585-.989-5.323l-.14-.521C-2.564.161-.587.19-.169 1.754c.28 1.042-.21 2.478-.544 3.684-.175.978-.74 1.316-1.056 1.773z" fill="#DF21C3"/><path d="M-1.769 7.211c.315-.457.881-.795 1.15-1.425C-.288 4.579.407 3.089-.077 2.1-.495.537-2.47.508-4.104.946-4.4.653-4.65.534-4.744.186c2.717-1.287 4.768-.16 6.82.966.716 1.857.978 3.65-.032 5.596-1.131.676-2.309 1.178-3.236 1.799-.344-.467-.437-.815-.577-1.336z" fill="#EF27B0"/><path d="M17.364-4.298c.499.131 1.214.204 1.647.088-.172 4.553-2.67 7.343-7.648 8.677-3.678.985-5.873-.282-7.499-4.618l-.994-3.71 1.515-.406c-.018.8.031 1.847.23 2.59.362 3.083 1.957 5.572 4.62 5.124 2.512-.143 5.127-1.64 7.242-3.266.732-.727.635-2.821.887-4.48z" fill="#FD5A5A"/><path d="M-1.6 8.656C-.47 7.98.709 7.48 1.636 6.858c-.175.978-.555 2.01-.73 2.989-2.449.656-2.53 1.982-1.657 3.61 1.06 2.324 3.444 2.244 6.494-.25.362-.283.927-.62 1.289-.904.344.467.64.76.985 1.226-.315.457-.677.74-.992 1.197-2.613 3.308-7.178 3.413-9.537.32-1.97-2.452-.506-4.334.912-6.39z" fill="#EE349F"/><path d="M5.743 13.207c-3.05 2.494-5.23 2.52-6.494.25-.827-1.454-.588-3.009 1.657-3.61 3.312-.701 3.813-.463 4.837 3.36z" fill="#FC3A8F"/><path d="M6.157.059C6.91.416 7.818.545 8.57.902l1.253.596c.91.129 1.662.486 2.478.267 2.402-.83 3.96-2.365 4.718-4.43.204-.055.455.064.863-.045-.38 1.033-.369 2.706-1.138 3.098-2.012 1.47-4.525 2.703-6.817 3.13-2.29.428-3.62-1.265-3.77-3.46z" fill="#FD6645"/><path d="M16.768-2.784c-.759 2.065-2.316 3.6-4.718 4.43-.612.164-1.568-.139-2.477-.267 4.08-1.094 4.08-1.094 4.17-4.843.519-.511 1.289-.904 1.808-1.416a41.36 41.36 0 001.217 2.096z" fill="#FD8331"/></g><path d="M7.997 5.332A2.673 2.673 0 005.33 8a2.673 2.673 0 002.667 2.668A2.673 2.673 0 0010.665 8a2.673 2.673 0 00-2.668-2.668zM16 8c0-1.105.01-2.2-.053-3.302-.062-1.281-.354-2.418-1.29-3.355C13.717.405 12.582.115 11.3.053 10.197-.01 9.102 0 8 0 6.895 0 5.8-.01 4.697.053c-1.28.062-2.417.354-3.354 1.29C.404 2.284.114 3.417.052 4.699-.01 5.803 0 6.898 0 8c0 1.103-.01 2.2.052 3.302.062 1.281.354 2.418 1.29 3.354.94.94 2.074 1.23 3.355 1.291C5.802 16.01 6.897 16 8 16c1.105 0 2.2.01 3.302-.052 1.281-.062 2.418-.354 3.355-1.29.938-.94 1.228-2.074 1.29-3.355C16.012 10.2 16 9.105 16 8zm-8.002 4.105A4.099 4.099 0 013.893 8a4.099 4.099 0 014.104-4.105A4.099 4.099 0 0112.102 8a4.1 4.1 0 01-4.105 4.105zm4.273-7.42a.958.958 0 110-1.917.957.957 0 110 1.918z" fill="#fff"/></g><defs><clipPath id="clip0"><path d="M0 0h16v16H0V0z" fill="#fff"/></clipPath><clipPath id="clip1"><path fill="#fff" d="M1 2h14v12H1z"/></clipPath></defs></svg>
